<svg width="72" height="72" viewBox="0 0 72 72" fill="none" xmlns="http://www.w3.org/2000/svg">
<path fill-rule="evenodd" clip-rule="evenodd" d="M21 21C21 12.714 27.714 6 36 6C44.286 6 51 12.714 51 21V30H52.2C54.84 30 57 32.16 57 34.8V55.8C57 59.76 53.76 63 49.8 63H22.2C18.24 63 15 59.76 15 55.8V34.8C15 32.16 17.16 30 19.8 30H21V21ZM45 21V30H27V21C27 16.026 31.026 12 36 12C40.974 12 45 16.026 45 21ZM36 36.75C34.807 36.7488 33.6492 37.1539 32.7172 37.8986C31.7852 38.6433 31.1347 39.6833 30.8727 40.8471C30.6107 42.011 30.7529 43.2294 31.2759 44.3016C31.7989 45.3738 32.6715 46.236 33.75 46.746V54C33.75 54.5967 33.9871 55.169 34.409 55.591C34.831 56.0129 35.4033 56.25 36 56.25C36.5967 56.25 37.169 56.0129 37.591 55.591C38.0129 55.169 38.25 54.5967 38.25 54V46.746C39.3285 46.236 40.2011 45.3738 40.7241 44.3016C41.2471 43.2294 41.3893 42.011 41.1273 40.8471C40.8653 39.6833 40.2148 38.6433 39.2828 37.8986C38.3508 37.1539 37.193 36.7488 36 36.75Z" fill="#FF0808"/>
</svg>
