<svg width="72" height="72" viewBox="0 0 72 72" fill="none" xmlns="http://www.w3.org/2000/svg">
<path fill-rule="evenodd" clip-rule="evenodd" d="M21 21C20.995 17.3455 22.3243 13.8148 24.7382 11.0711C27.1522 8.3273 30.4849 6.5592 34.1103 6.0988C37.7357 5.63839 41.4044 6.51735 44.4276 8.57062C47.4508 10.6239 49.6204 13.7102 50.529 17.25C50.7279 18.0206 50.6126 18.8386 50.2083 19.5241C49.8041 20.2097 49.1441 20.7066 48.3735 20.9055C47.6029 21.1044 46.7849 20.989 46.0993 20.5848C45.4138 20.1806 44.9169 19.5206 44.718 18.75C44.1733 16.6256 42.8717 14.7731 41.0576 13.5407C39.2435 12.3083 37.0418 11.7806 34.8662 12.0569C32.6905 12.3332 30.6906 13.3944 29.2422 15.0411C27.7937 16.6879 26.9964 18.8069 27 21V30H52.2C54.84 30 57 32.16 57 34.8V55.8C57 59.76 53.76 63 49.8 63H22.2C18.24 63 15 59.76 15 55.8V34.8C15 32.16 17.16 30 19.8 30H21V21ZM36 36.75C34.807 36.7487 33.6492 37.1538 32.7172 37.8986C31.7852 38.6433 31.1347 39.6832 30.8727 40.8471C30.6107 42.011 30.7529 43.2293 31.2759 44.3016C31.7989 45.3738 32.6715 46.2359 33.75 46.746V54C33.75 54.5967 33.9871 55.169 34.409 55.591C34.831 56.0129 35.4033 56.25 36 56.25C36.5967 56.25 37.169 56.0129 37.591 55.591C38.0129 55.169 38.25 54.5967 38.25 54V46.746C39.3285 46.2359 40.2011 45.3738 40.7241 44.3016C41.2471 43.2293 41.3893 42.011 41.1273 40.8471C40.8653 39.6832 40.2148 38.6433 39.2828 37.8986C38.3508 37.1538 37.193 36.7487 36 36.75Z" fill="#14AE5C"/>
</svg>
