<svg width="24" height="24" viewBox="0 0 24 24" fill="none" xmlns="http://www.w3.org/2000/svg">
<path fill-rule="evenodd" clip-rule="evenodd" d="M7 7.00007C6.99832 5.7819 7.44142 4.60502 8.24608 3.69043C9.05074 2.77585 10.1616 2.18648 11.3701 2.03301C12.5786 1.87955 13.8015 2.17253 14.8092 2.85696C15.8169 3.54138 16.5401 4.57015 16.843 5.75007C16.9093 6.00694 16.8709 6.27962 16.7361 6.50813C16.6014 6.73664 16.3814 6.90227 16.1245 6.96857C15.8676 7.03488 15.595 6.99643 15.3664 6.86168C15.1379 6.72694 14.9723 6.50694 14.906 6.25007C14.7244 5.54194 14.2906 4.92446 13.6859 4.51365C13.0812 4.10284 12.3473 3.92696 11.6221 4.01905C10.8968 4.11115 10.2302 4.46488 9.74739 5.01379C9.26457 5.56271 8.9988 6.26903 9 7.00007V10.0001H17.4C18.28 10.0001 19 10.7201 19 11.6001V18.6001C19 19.9201 17.92 21.0001 16.6 21.0001H7.4C6.08 21.0001 5 19.9201 5 18.6001V11.6001C5 10.7201 5.72 10.0001 6.6 10.0001H7V7.00007ZM12 12.2501C11.6023 12.2497 11.2164 12.3847 10.9057 12.6329C10.5951 12.8812 10.3782 13.2278 10.2909 13.6158C10.2036 14.0037 10.251 14.4099 10.4253 14.7673C10.5996 15.1247 10.8905 15.4121 11.25 15.5821V18.0001C11.25 18.199 11.329 18.3898 11.4697 18.5304C11.6103 18.6711 11.8011 18.7501 12 18.7501C12.1989 18.7501 12.3897 18.6711 12.5303 18.5304C12.671 18.3898 12.75 18.199 12.75 18.0001V15.5821C13.1095 15.4121 13.4004 15.1247 13.5747 14.7673C13.749 14.4099 13.7964 14.0037 13.7091 13.6158C13.6218 13.2278 13.4049 12.8812 13.0943 12.6329C12.7836 12.3847 12.3977 12.2497 12 12.2501Z" fill="#14AE5C"/>
</svg>
